<?xml version="1.0" encoding="UTF-8"?><svg id="Layer_1" xmlns="http://www.w3.org/2000/svg" viewBox="0 0 2414.06 1032.08"><defs><style>.cls-1{fill:#fff;stroke-width:0px;}</style></defs><path class="cls-1" d="m1113.58,467.77c17.4,0,31.69,4.28,42.88,12.84,11.19,8.57,18.16,20.87,20.94,36.87h45.56c-3.05-23.2-14.5-40.88-34.38-53.03-19.88-12.16-46.81-18.23-80.79-18.23-39.78,0-70.5,9.06-92.18,27.14-21.69,18.1-32.54,44.27-32.54,78.5s10.84,60.44,32.54,78.52c21.68,18.1,52.4,27.14,92.18,27.14,33.69,0,60.55-6.08,80.58-18.23,20.03-12.15,31.55-29.83,34.59-53.03h-45.56c-2.77,15.73-9.89,27.97-21.34,36.67-11.47,8.7-25.63,13.04-42.47,13.04-22.65,0-39.84-7.18-51.59-21.55-11.73-14.36-17.6-35.21-17.6-62.57s5.86-48.19,17.6-62.56c11.75-14.36,28.94-21.53,51.59-21.53Z"/><path class="cls-1" d="m1448.62,466.95c-15.6-13.82-36.94-20.72-64-20.72-16.3,0-31.01,3.38-44.12,10.16-13.13,6.76-22.86,15.94-29.22,27.55v-109.55h-61.31v279.01h61.31v-115.17c0-21.55,4.98-38.68,14.92-51.38,9.93-12.71,23.46-19.05,40.59-19.05,29.28,0,43.92,17.53,43.92,52.61v132.99h61.31v-129.27c0-24.31-7.81-43.36-23.42-57.17Z"/><path class="cls-1" d="m1692.16,465.28c-17.95-12.7-44.06-19.06-78.31-19.06-31.21,0-55.94,5.87-74.17,17.62-18.23,11.75-28.86,28.79-31.9,51.17h45.58c2.2-15.48,7.94-27.21,17.19-35.23,9.25-8,21.76-12.01,37.49-12.01s28.31,4.13,36.88,12.43c8.56,8.28,12.85,20.16,12.85,35.63,0,0,.09,21.19.19,48.25l-.04,18.06s-32.11,17.08-111.5,17.08c-15.92,0-38.64.25-38.64.25v53.73h34.37c36.7,0,72.87-12.27,100.19-36.78,6.16-5.53,11.6-11.54,15.73-17.89.1,26.66.18,50.54.18,54.84h60.46c0-18.96.38-132.99.38-132.99,0-24.03-8.98-42.39-26.93-55.11Z"/><rect class="cls-1" x="1754.09" y="450.37" width="61.33" height="203.01"/><path class="cls-1" d="m1808.28,378.77c-6.16-5.57-14.01-8.37-23.52-8.37s-17.38,2.79-23.52,8.37c-6.16,5.57-9.24,12.66-9.24,21.26s3.08,15.68,9.24,21.26c6.15,5.57,13.99,8.36,23.52,8.36s17.36-2.78,23.52-8.36c6.15-5.57,9.23-12.66,9.23-21.26s-3.08-15.69-9.23-21.26Z"/><path class="cls-1" d="m2047.04,466.95c-15.62-13.82-36.96-20.72-64.02-20.72-16.3,0-31.01,3.38-44.12,10.16-13.12,6.76-22.86,15.94-29.22,27.55v-33.56h-61.31v203.01h61.31v-115.17c0-21.55,4.98-38.68,14.92-51.38,9.93-12.71,23.46-19.05,40.61-19.05,29.27,0,43.91,17.53,43.91,52.61v132.99h61.31v-129.27c0-24.3-7.81-43.36-23.4-57.17Z"/><path class="cls-1" d="m401.08,396.77h-19.01v53.23h-38.45v16.48h38.45v128.02c0,23.66,5.84,40.07,17.53,49.22,11.68,9.16,27.11,13.73,46.26,13.73h42.67v-17.32h-38.03c-16.34,0-28.66-2.81-36.97-8.45-8.31-5.63-12.46-16.48-12.46-32.53v-132.66h87.46v-16.48h-87.46v-53.23Z"/><path class="cls-1" d="m671.9,457.82c-13.24-8.03-29.57-12.04-49.01-12.04-17.75,0-32.68,3.24-44.79,9.72-12.11,6.48-21.69,14.86-28.73,25.14-7.04,10.29-11.83,21.2-14.37,32.74h-1.27v-139h-19.01v283.07h19.01v-95.06c0-19.43,2.81-36.61,8.45-51.54,5.63-14.93,14.72-26.68,27.25-35.28,12.53-8.59,28.8-12.89,48.8-12.89,24.78,0,43.37,6.06,55.77,18.17,12.39,12.11,18.59,31.13,18.59,57.04v119.57h18.59v-118.3c0-18.02-3.24-34.08-9.72-48.16-6.48-14.08-16.34-25.14-29.58-33.17Z"/><path class="cls-1" d="m903,456.97c-15.21-7.46-32.39-11.2-51.55-11.2-22.25,0-41.4,4.65-57.46,13.94s-28.38,22.12-36.97,38.45c-8.59,16.34-12.89,34.79-12.89,55.35s4.29,39.44,12.89,55.77c8.59,16.34,20.91,29.15,36.97,38.45s35.21,13.94,57.46,13.94c18.31,0,34.86-3.03,49.64-9.08,14.79-6.05,26.47-14.5,35.07-25.35,8.59-10.84,12.89-23.3,12.89-37.39v-2.54h-18.59v2.54c0,17.18-6.55,30.7-19.65,40.56-13.1,9.86-33.03,14.79-59.78,14.79-30.99,0-53.52-8.17-67.6-24.51-13.21-15.31-20.22-35.45-21.04-60.42h187.51c.56-2.25,1.06-5.07,1.48-8.45.42-3.38.63-6.9.63-10.56,0-20.28-4.37-37.53-13.1-51.76-8.73-14.22-20.7-25.07-35.91-32.53Zm-119.36,29.36c14.22-16.33,36.69-24.5,67.39-24.5,26.2,0,46.69,6.48,61.47,19.43,14.79,12.96,22.18,31.55,22.18,55.77,0,3.1-.07,6.13-.21,9.08-.01.21-.03.42-.04.63h-172.05c.78-24.89,7.86-45.03,21.26-60.42Z"/></svg>